<svg width="49" height="12" viewBox="0 0 49 12" fill="none" xmlns="http://www.w3.org/2000/svg">
<path d="M6.916 9.012H2.842L2.142 11H0.476L3.962 1.256H5.81L9.296 11H7.616L6.916 9.012ZM6.468 7.71L4.886 3.188L3.29 7.71H6.468ZM10.2797 7.108C10.2797 6.33333 10.4384 5.64733 10.7557 5.05C11.0824 4.45267 11.5211 3.99067 12.0717 3.664C12.6317 3.328 13.2524 3.16 13.9337 3.16C14.4377 3.16 14.9324 3.272 15.4177 3.496C15.9124 3.71067 16.3044 4 16.5937 4.364V0.64H18.2037V11H16.5937V9.838C16.3324 10.2113 15.9684 10.5193 15.5017 10.762C15.0444 11.0047 14.5171 11.126 13.9197 11.126C13.2477 11.126 12.6317 10.958 12.0717 10.622C11.5211 10.2767 11.0824 9.80067 10.7557 9.194C10.4384 8.578 10.2797 7.88267 10.2797 7.108ZM16.5937 7.136C16.5937 6.604 16.4817 6.142 16.2577 5.75C16.0431 5.358 15.7584 5.05933 15.4037 4.854C15.0491 4.64867 14.6664 4.546 14.2557 4.546C13.8451 4.546 13.4624 4.64867 13.1077 4.854C12.7531 5.05 12.4637 5.344 12.2397 5.736C12.0251 6.11867 11.9177 6.576 11.9177 7.108C11.9177 7.64 12.0251 8.10667 12.2397 8.508C12.4637 8.90933 12.7531 9.21733 13.1077 9.432C13.4717 9.63733 13.8544 9.74 14.2557 9.74C14.6664 9.74 15.0491 9.63733 15.4037 9.432C15.7584 9.22667 16.0431 8.928 16.2577 8.536C16.4817 8.13467 16.5937 7.668 16.5937 7.136ZM21.112 2.264C20.8227 2.264 20.58 2.166 20.384 1.97C20.188 1.774 20.09 1.53133 20.09 1.242C20.09 0.952666 20.188 0.71 20.384 0.514C20.58 0.318 20.8227 0.219999 21.112 0.219999C21.392 0.219999 21.63 0.318 21.826 0.514C22.022 0.71 22.12 0.952666 22.12 1.242C22.12 1.53133 22.022 1.774 21.826 1.97C21.63 2.166 21.392 2.264 21.112 2.264ZM21.896 3.286V11H20.3V3.286H21.896ZM23.4594 7.108C23.4594 6.33333 23.6181 5.64733 23.9354 5.05C24.2621 4.45267 24.7007 3.99067 25.2514 3.664C25.8114 3.328 26.4321 3.16 27.1134 3.16C27.6174 3.16 28.1121 3.272 28.5974 3.496C29.0921 3.71067 29.4841 4 29.7734 4.364V0.64H31.3834V11H29.7734V9.838C29.5121 10.2113 29.1481 10.5193 28.6814 10.762C28.2241 11.0047 27.6967 11.126 27.0994 11.126C26.4274 11.126 25.8114 10.958 25.2514 10.622C24.7007 10.2767 24.2621 9.80067 23.9354 9.194C23.6181 8.578 23.4594 7.88267 23.4594 7.108ZM29.7734 7.136C29.7734 6.604 29.6614 6.142 29.4374 5.75C29.2227 5.358 28.9381 5.05933 28.5834 4.854C28.2287 4.64867 27.8461 4.546 27.4354 4.546C27.0247 4.546 26.6421 4.64867 26.2874 4.854C25.9327 5.05 25.6434 5.344 25.4194 5.736C25.2047 6.11867 25.0974 6.576 25.0974 7.108C25.0974 7.64 25.2047 8.10667 25.4194 8.508C25.6434 8.90933 25.9327 9.21733 26.2874 9.432C26.6514 9.63733 27.0341 9.74 27.4354 9.74C27.8461 9.74 28.2287 9.63733 28.5834 9.432C28.9381 9.22667 29.2227 8.928 29.4374 8.536C29.6614 8.13467 29.7734 7.668 29.7734 7.136ZM32.9477 7.108C32.9477 6.33333 33.1064 5.64733 33.4237 5.05C33.7504 4.45267 34.189 3.99067 34.7397 3.664C35.2997 3.328 35.9157 3.16 36.5877 3.16C37.1944 3.16 37.7217 3.28133 38.1697 3.524C38.627 3.75733 38.991 4.05133 39.2617 4.406V3.286H40.8717V11H39.2617V9.852C38.991 10.216 38.6224 10.5193 38.1557 10.762C37.689 11.0047 37.157 11.126 36.5597 11.126C35.897 11.126 35.2904 10.958 34.7397 10.622C34.189 10.2767 33.7504 9.80067 33.4237 9.194C33.1064 8.578 32.9477 7.88267 32.9477 7.108ZM39.2617 7.136C39.2617 6.604 39.1497 6.142 38.9257 5.75C38.711 5.358 38.4264 5.05933 38.0717 4.854C37.717 4.64867 37.3344 4.546 36.9237 4.546C36.513 4.546 36.1304 4.64867 35.7757 4.854C35.421 5.05 35.1317 5.344 34.9077 5.736C34.693 6.11867 34.5857 6.576 34.5857 7.108C34.5857 7.64 34.693 8.10667 34.9077 8.508C35.1317 8.90933 35.421 9.21733 35.7757 9.432C36.1397 9.63733 36.5224 9.74 36.9237 9.74C37.3344 9.74 37.717 9.63733 38.0717 9.432C38.4264 9.22667 38.711 8.928 38.9257 8.536C39.1497 8.13467 39.2617 7.668 39.2617 7.136ZM45.768 11.126C45.1613 11.126 44.6153 11.0187 44.13 10.804C43.654 10.58 43.276 10.2813 42.996 9.908C42.716 9.52533 42.5666 9.10067 42.548 8.634H44.2C44.228 8.96067 44.382 9.236 44.662 9.46C44.9513 9.67467 45.3106 9.782 45.74 9.782C46.188 9.782 46.5333 9.698 46.776 9.53C47.028 9.35267 47.154 9.12867 47.154 8.858C47.154 8.56867 47.014 8.354 46.734 8.214C46.4633 8.074 46.0293 7.92 45.432 7.752C44.8533 7.59333 44.382 7.43933 44.018 7.29C43.654 7.14067 43.3366 6.912 43.066 6.604C42.8046 6.296 42.674 5.89 42.674 5.386C42.674 4.97533 42.7953 4.602 43.038 4.266C43.2806 3.92067 43.626 3.65 44.074 3.454C44.5313 3.258 45.054 3.16 45.642 3.16C46.5193 3.16 47.224 3.384 47.756 3.832C48.2973 4.27067 48.5866 4.87267 48.624 5.638H47.028C47 5.29267 46.86 5.01733 46.608 4.812C46.356 4.60667 46.0153 4.504 45.586 4.504C45.166 4.504 44.844 4.58333 44.62 4.742C44.396 4.90067 44.284 5.11067 44.284 5.372C44.284 5.57733 44.3586 5.75 44.508 5.89C44.6573 6.03 44.8393 6.142 45.054 6.226C45.2686 6.30067 45.586 6.39867 46.006 6.52C46.566 6.66933 47.0233 6.82333 47.378 6.982C47.742 7.13133 48.0546 7.35533 48.316 7.654C48.5773 7.95267 48.7126 8.34933 48.722 8.844C48.722 9.28267 48.6006 9.67467 48.358 10.02C48.1153 10.3653 47.77 10.636 47.322 10.832C46.8833 11.028 46.3653 11.126 45.768 11.126Z" fill="black"/>
</svg>
