<svg xmlns="http://www.w3.org/2000/svg" xmlns:xlink="http://www.w3.org/1999/xlink" width="500" zoomAndPan="magnify" viewBox="0 0 375 374.999991" height="500" preserveAspectRatio="xMidYMid meet" version="1.0"><defs><g/></defs><g fill="#000000" fill-opacity="1"><g transform="translate(57.317081, 239.282459)"><g><path d="M 46.890625 0 L 0.34375 0 L 0.34375 -12.796875 L 24.390625 -108.125 L 4.5 -108.125 L 4.5 -120.921875 L 44.984375 -120.921875 L 44.984375 -108.125 L 20.59375 -12.796875 L 46.890625 -12.796875 Z M 46.890625 0 "/></g></g></g><g fill="#000000" fill-opacity="1"><g transform="translate(104.370938, 239.282459)"><g><path d="M 48.953125 -111.765625 C 50.109375 -109.453125 50.6875 -106.679688 50.6875 -103.453125 L 50.6875 1.03125 L 30.453125 1.03125 L 30.453125 -55.703125 L 24.390625 -55.703125 L 24.390625 1.03125 L 4.15625 1.03125 L 4.15625 -103.453125 C 4.15625 -106.679688 4.789062 -109.453125 6.0625 -111.765625 C 7.207031 -114.179688 8.757812 -116.140625 10.71875 -117.640625 C 12.800781 -119.140625 15.050781 -120.234375 17.46875 -120.921875 C 20.007812 -121.617188 22.664062 -121.96875 25.4375 -121.96875 L 29.578125 -121.96875 C 32.117188 -121.96875 34.65625 -121.617188 37.1875 -120.921875 C 39.84375 -120.234375 42.148438 -119.140625 44.109375 -117.640625 C 46.078125 -116.140625 47.691406 -114.179688 48.953125 -111.765625 Z M 27.328125 -107.609375 C 25.367188 -107.609375 24.390625 -105.359375 24.390625 -100.859375 L 24.390625 -68.515625 L 30.453125 -68.515625 L 30.453125 -100.859375 C 30.453125 -105.359375 29.53125 -107.609375 27.6875 -107.609375 Z M 27.328125 -107.609375 "/></g></g></g><g fill="#000000" fill-opacity="1"><g transform="translate(159.382421, 239.282459)"><g><path d="M 29.234375 1.03125 L 25.078125 1.03125 C 22.316406 1.03125 19.664062 0.6875 17.125 0 C 14.59375 -0.6875 12.34375 -1.78125 10.375 -3.28125 C 8.414062 -4.78125 6.859375 -6.6875 5.703125 -9 C 4.441406 -11.414062 3.8125 -14.238281 3.8125 -17.46875 L 3.8125 -103.453125 C 3.8125 -106.679688 4.441406 -109.453125 5.703125 -111.765625 C 6.859375 -114.179688 8.414062 -116.140625 10.375 -117.640625 C 12.457031 -119.140625 14.707031 -120.234375 17.125 -120.921875 C 19.664062 -121.617188 22.316406 -121.96875 25.078125 -121.96875 L 29.234375 -121.96875 C 31.773438 -121.96875 34.3125 -121.617188 36.84375 -120.921875 C 39.5 -120.234375 41.804688 -119.140625 43.765625 -117.640625 C 45.722656 -116.140625 47.335938 -114.179688 48.609375 -111.765625 C 49.765625 -109.453125 50.34375 -106.679688 50.34375 -103.453125 L 50.34375 -68.515625 L 30.109375 -68.515625 L 30.109375 -101.03125 C 30.109375 -103.457031 29.929688 -105.128906 29.578125 -106.046875 C 29.117188 -107.085938 28.367188 -107.609375 27.328125 -107.609375 L 26.984375 -107.609375 C 25.835938 -107.609375 25.085938 -107.085938 24.734375 -106.046875 C 24.273438 -105.128906 24.046875 -103.398438 24.046875 -100.859375 L 24.046875 -20.0625 C 24.046875 -17.644531 24.273438 -15.914062 24.734375 -14.875 C 25.085938 -13.84375 25.835938 -13.328125 26.984375 -13.328125 L 27.328125 -13.328125 C 28.367188 -13.328125 29.117188 -13.84375 29.578125 -14.875 C 29.929688 -15.914062 30.109375 -17.644531 30.109375 -20.0625 L 30.109375 -55.703125 L 50.34375 -55.703125 L 50.34375 -17.46875 C 50.34375 -14.238281 49.765625 -11.414062 48.609375 -9 C 47.335938 -6.6875 45.722656 -4.78125 43.765625 -3.28125 C 41.804688 -1.78125 39.5 -0.6875 36.84375 0 C 34.3125 0.6875 31.773438 1.03125 29.234375 1.03125 Z M 29.234375 1.03125 "/></g></g></g><g fill="#000000" fill-opacity="1"><g transform="translate(213.528947, 239.282459)"><g><path d="M 53.453125 -120.921875 L 39.09375 -62.453125 L 53.109375 0 L 34.421875 0 L 24.90625 -39.4375 L 24.5625 -39.4375 L 24.5625 0 L 4.328125 0 L 4.328125 -120.921875 L 24.5625 -120.921875 L 24.5625 -78.375 L 24.90625 -78.375 L 34.765625 -120.921875 Z M 53.453125 -120.921875 "/></g></g></g><g fill="#000000" fill-opacity="1"><g transform="translate(267.329473, 239.282459)"><g><path d="M 51.03125 -120.921875 L 35.46875 -43.25 L 35.296875 0 L 15.046875 0 L 15.046875 -43.25 L -0.6875 -120.921875 L 19.71875 -120.921875 L 24.90625 -82.171875 L 25.4375 -82.171875 L 30.625 -120.921875 Z M 51.03125 -120.921875 "/></g></g></g></svg>