<svg width="60" height="12" viewBox="0 0 60 12" fill="none" xmlns="http://www.w3.org/2000/svg">
<path d="M8.044 11H6.448L1.646 3.734V11H0.05V1.256H1.646L6.448 8.508V1.256H8.044V11ZM17.2098 6.954C17.2098 7.24333 17.1912 7.50467 17.1538 7.738H11.2598C11.3065 8.354 11.5352 8.84867 11.9458 9.222C12.3565 9.59533 12.8605 9.782 13.4578 9.782C14.3165 9.782 14.9232 9.42267 15.2778 8.704H16.9998C16.7665 9.41333 16.3418 9.99667 15.7258 10.454C15.1192 10.902 14.3632 11.126 13.4578 11.126C12.7205 11.126 12.0578 10.9627 11.4698 10.636C10.8912 10.3 10.4338 9.83333 10.0978 9.236C9.77118 8.62933 9.60784 7.92933 9.60784 7.136C9.60784 6.34267 9.76651 5.64733 10.0838 5.05C10.4105 4.44333 10.8632 3.97667 11.4418 3.65C12.0298 3.32333 12.7018 3.16 13.4578 3.16C14.1858 3.16 14.8345 3.31867 15.4038 3.636C15.9732 3.95333 16.4165 4.40133 16.7338 4.98C17.0512 5.54933 17.2098 6.20733 17.2098 6.954ZM15.5438 6.45C15.5345 5.862 15.3245 5.39067 14.9138 5.036C14.5032 4.68133 13.9945 4.504 13.3878 4.504C12.8372 4.504 12.3658 4.68133 11.9738 5.036C11.5818 5.38133 11.3485 5.85267 11.2738 6.45H15.5438ZM29.1405 3.286L26.7465 11H25.0665L23.5125 5.302L21.9585 11H20.2785L17.8705 3.286H19.4945L21.1045 9.488L22.7425 3.286H24.4085L25.9765 9.46L27.5725 3.286H29.1405ZM39.1779 6.002C39.7006 6.09533 40.1439 6.37067 40.5079 6.828C40.8719 7.28533 41.0539 7.80333 41.0539 8.382C41.0539 8.87667 40.9233 9.32467 40.6619 9.726C40.4099 10.118 40.0413 10.4307 39.5559 10.664C39.0706 10.888 38.5059 11 37.8619 11H33.9699V1.27H37.6799C38.3426 1.27 38.9119 1.382 39.3879 1.606C39.8639 1.83 40.2233 2.13333 40.4659 2.516C40.7086 2.88933 40.8299 3.30933 40.8299 3.776C40.8299 4.336 40.6806 4.80267 40.3819 5.176C40.0833 5.54933 39.6819 5.82467 39.1779 6.002ZM35.5659 5.358H37.5399C38.0626 5.358 38.4686 5.24133 38.7579 5.008C39.0566 4.76533 39.2059 4.42 39.2059 3.972C39.2059 3.53333 39.0566 3.19267 38.7579 2.95C38.4686 2.698 38.0626 2.572 37.5399 2.572H35.5659V5.358ZM37.7219 9.698C38.2633 9.698 38.6879 9.56733 38.9959 9.306C39.3039 9.04467 39.4579 8.68067 39.4579 8.214C39.4579 7.738 39.2946 7.36 38.9679 7.08C38.6413 6.8 38.2073 6.66 37.6659 6.66H35.5659V9.698H37.7219ZM42.2563 7.108C42.2563 6.33333 42.4149 5.64733 42.7323 5.05C43.0589 4.45267 43.4976 3.99067 44.0483 3.664C44.6083 3.328 45.2243 3.16 45.8963 3.16C46.5029 3.16 47.0303 3.28133 47.4783 3.524C47.9356 3.75733 48.2996 4.05133 48.5703 4.406V3.286H50.1803V11H48.5703V9.852C48.2996 10.216 47.9309 10.5193 47.4643 10.762C46.9976 11.0047 46.4656 11.126 45.8683 11.126C45.2056 11.126 44.5989 10.958 44.0483 10.622C43.4976 10.2767 43.0589 9.80067 42.7323 9.194C42.4149 8.578 42.2563 7.88267 42.2563 7.108ZM48.5703 7.136C48.5703 6.604 48.4583 6.142 48.2343 5.75C48.0196 5.358 47.7349 5.05933 47.3803 4.854C47.0256 4.64867 46.6429 4.546 46.2323 4.546C45.8216 4.546 45.4389 4.64867 45.0843 4.854C44.7296 5.05 44.4403 5.344 44.2163 5.736C44.0016 6.11867 43.8943 6.576 43.8943 7.108C43.8943 7.64 44.0016 8.10667 44.2163 8.508C44.4403 8.90933 44.7296 9.21733 45.0843 9.432C45.4483 9.63733 45.8309 9.74 46.2323 9.74C46.6429 9.74 47.0256 9.63733 47.3803 9.432C47.7349 9.22667 48.0196 8.928 48.2343 8.536C48.4583 8.13467 48.5703 7.668 48.5703 7.136ZM53.8726 0.64V11H52.2766V0.64H53.8726ZM55.436 7.108C55.436 6.33333 55.5946 5.64733 55.912 5.05C56.2386 4.45267 56.6773 3.99067 57.228 3.664C57.788 3.328 58.404 3.16 59.076 3.16C59.6826 3.16 60.21 3.28133 60.658 3.524C61.1153 3.75733 61.4793 4.05133 61.75 4.406V3.286H63.36V11H61.75V9.852C61.4793 10.216 61.1106 10.5193 60.644 10.762C60.1773 11.0047 59.6453 11.126 59.048 11.126C58.3853 11.126 57.7786 10.958 57.228 10.622C56.6773 10.2767 56.2386 9.80067 55.912 9.194C55.5946 8.578 55.436 7.88267 55.436 7.108ZM61.75 7.136C61.75 6.604 61.638 6.142 61.414 5.75C61.1993 5.358 60.9146 5.05933 60.56 4.854C60.2053 4.64867 59.8226 4.546 59.412 4.546C59.0013 4.546 58.6186 4.64867 58.264 4.854C57.9093 5.05 57.62 5.344 57.396 5.736C57.1813 6.11867 57.074 6.576 57.074 7.108C57.074 7.64 57.1813 8.10667 57.396 8.508C57.62 8.90933 57.9093 9.21733 58.264 9.432C58.628 9.63733 59.0106 9.74 59.412 9.74C59.8226 9.74 60.2053 9.63733 60.56 9.432C60.9146 9.22667 61.1993 8.928 61.414 8.536C61.638 8.13467 61.75 7.668 61.75 7.136ZM69.3483 3.16C69.9549 3.16 70.4963 3.286 70.9723 3.538C71.4576 3.79 71.8356 4.16333 72.1063 4.658C72.3769 5.15267 72.5123 5.75 72.5123 6.45V11H70.9303V6.688C70.9303 5.99733 70.7576 5.47 70.4123 5.106C70.0669 4.73267 69.5956 4.546 68.9983 4.546C68.4009 4.546 67.9249 4.73267 67.5703 5.106C67.2249 5.47 67.0523 5.99733 67.0523 6.688V11H65.4563V3.286H67.0523V4.168C67.3136 3.85067 67.6449 3.60333 68.0463 3.426C68.4569 3.24867 68.8909 3.16 69.3483 3.16ZM74.016 7.136C74.016 6.34267 74.1747 5.64733 74.492 5.05C74.8187 4.44333 75.2667 3.97667 75.836 3.65C76.4054 3.32333 77.0587 3.16 77.796 3.16C78.7294 3.16 79.4994 3.384 80.106 3.832C80.722 4.27067 81.1374 4.90067 81.352 5.722H79.63C79.49 5.33933 79.266 5.04067 78.958 4.826C78.65 4.61133 78.2627 4.504 77.796 4.504C77.1427 4.504 76.62 4.73733 76.228 5.204C75.8454 5.66133 75.654 6.30533 75.654 7.136C75.654 7.96667 75.8454 8.61533 76.228 9.082C76.62 9.54867 77.1427 9.782 77.796 9.782C78.72 9.782 79.3314 9.376 79.63 8.564H81.352C81.128 9.348 80.708 9.97333 80.092 10.44C79.476 10.8973 78.7107 11.126 77.796 11.126C77.0587 11.126 76.4054 10.9627 75.836 10.636C75.2667 10.3 74.8187 9.83333 74.492 9.236C74.1747 8.62933 74.016 7.92933 74.016 7.136ZM90.0126 6.954C90.0126 7.24333 89.9939 7.50467 89.9566 7.738H84.0626C84.1092 8.354 84.3379 8.84867 84.7486 9.222C85.1592 9.59533 85.6632 9.782 86.2606 9.782C87.1192 9.782 87.7259 9.42267 88.0806 8.704H89.8026C89.5692 9.41333 89.1446 9.99667 88.5286 10.454C87.9219 10.902 87.1659 11.126 86.2606 11.126C85.5232 11.126 84.8606 10.9627 84.2726 10.636C83.6939 10.3 83.2366 9.83333 82.9006 9.236C82.5739 8.62933 82.4106 7.92933 82.4106 7.136C82.4106 6.34267 82.5692 5.64733 82.8866 5.05C83.2132 4.44333 83.6659 3.97667 84.2446 3.65C84.8326 3.32333 85.5046 3.16 86.2606 3.16C86.9886 3.16 87.6372 3.31867 88.2066 3.636C88.7759 3.95333 89.2192 4.40133 89.5366 4.98C89.8539 5.54933 90.0126 6.20733 90.0126 6.954ZM88.3466 6.45C88.3372 5.862 88.1272 5.39067 87.7166 5.036C87.3059 4.68133 86.7972 4.504 86.1906 4.504C85.6399 4.504 85.1686 4.68133 84.7766 5.036C84.3846 5.38133 84.1512 5.85267 84.0766 6.45H88.3466Z" fill="black"/>
</svg>
