<svg width="30" height="12" viewBox="0 0 30 12" fill="none" xmlns="http://www.w3.org/2000/svg">
<path d="M8.544 11H6.948L2.146 3.734V11H0.55V1.256H2.146L6.948 8.508V1.256H8.544V11ZM11.4518 2.264C11.1625 2.264 10.9198 2.166 10.7238 1.97C10.5278 1.774 10.4298 1.53133 10.4298 1.242C10.4298 0.952666 10.5278 0.71 10.7238 0.514C10.9198 0.318 11.1625 0.219999 11.4518 0.219999C11.7318 0.219999 11.9698 0.318 12.1658 0.514C12.3618 0.71 12.4598 0.952666 12.4598 1.242C12.4598 1.53133 12.3618 1.774 12.1658 1.97C11.9698 2.166 11.7318 2.264 11.4518 2.264ZM12.2358 3.286V11H10.6398V3.286H12.2358ZM17.3833 7.15L20.9393 11H18.7833L15.9273 7.682V11H14.3313V0.64H15.9273V6.66L18.7273 3.286H20.9393L17.3833 7.15ZM29.1532 6.954C29.1532 7.24333 29.1345 7.50467 29.0972 7.738H23.2032C23.2499 8.354 23.4785 8.84867 23.8892 9.222C24.2999 9.59533 24.8039 9.782 25.4012 9.782C26.2599 9.782 26.8665 9.42267 27.2212 8.704H28.9432C28.7099 9.41333 28.2852 9.99667 27.6692 10.454C27.0625 10.902 26.3065 11.126 25.4012 11.126C24.6639 11.126 24.0012 10.9627 23.4132 10.636C22.8345 10.3 22.3772 9.83333 22.0412 9.236C21.7145 8.62933 21.5512 7.92933 21.5512 7.136C21.5512 6.34267 21.7099 5.64733 22.0272 5.05C22.3539 4.44333 22.8065 3.97667 23.3852 3.65C23.9732 3.32333 24.6452 3.16 25.4012 3.16C26.1292 3.16 26.7779 3.31867 27.3472 3.636C27.9165 3.95333 28.3599 4.40133 28.6772 4.98C28.9945 5.54933 29.1532 6.20733 29.1532 6.954ZM27.4872 6.45C27.4779 5.862 27.2679 5.39067 26.8572 5.036C26.4465 4.68133 25.9379 4.504 25.3312 4.504C24.7805 4.504 24.3092 4.68133 23.9172 5.036C23.5252 5.38133 23.2919 5.85267 23.2172 6.45H27.4872Z" fill="black"/>
</svg>
