<svg width="40" height="11" viewBox="0 0 40 11" fill="none" xmlns="http://www.w3.org/2000/svg">
<path d="M6.854 3.168C6.854 3.66267 6.73733 4.12933 6.504 4.568C6.27067 5.00667 5.89733 5.366 5.384 5.646C4.87067 5.91667 4.21267 6.052 3.41 6.052H1.646V10H0.05V0.269999H3.41C4.15667 0.269999 4.78667 0.400666 5.3 0.661999C5.82267 0.913999 6.21 1.25933 6.462 1.698C6.72333 2.13667 6.854 2.62667 6.854 3.168ZM3.41 4.75C4.01667 4.75 4.46933 4.61467 4.768 4.344C5.06667 4.064 5.216 3.672 5.216 3.168C5.216 2.104 4.614 1.572 3.41 1.572H1.646V4.75H3.41ZM15.3622 2.286V10H13.7662V9.09C13.5142 9.40733 13.1828 9.65933 12.7722 9.846C12.3708 10.0233 11.9415 10.112 11.4842 10.112C10.8775 10.112 10.3315 9.986 9.84617 9.734C9.37017 9.482 8.99217 9.10867 8.71217 8.614C8.44151 8.11933 8.30617 7.522 8.30617 6.822V2.286H9.88817V6.584C9.88817 7.27467 10.0608 7.80667 10.4062 8.18C10.7515 8.544 11.2228 8.726 11.8202 8.726C12.4175 8.726 12.8888 8.544 13.2342 8.18C13.5888 7.80667 13.7662 7.27467 13.7662 6.584V2.286H15.3622ZM26.806 2.16C27.4126 2.16 27.954 2.286 28.43 2.538C28.9153 2.79 29.2933 3.16333 29.564 3.658C29.844 4.15267 29.984 4.75 29.984 5.45V10H28.402V5.688C28.402 4.99733 28.2293 4.47 27.884 4.106C27.5386 3.73267 27.0673 3.546 26.47 3.546C25.8726 3.546 25.3966 3.73267 25.042 4.106C24.6966 4.47 24.524 4.99733 24.524 5.688V10H22.942V5.688C22.942 4.99733 22.7693 4.47 22.424 4.106C22.0786 3.73267 21.6073 3.546 21.01 3.546C20.4126 3.546 19.9366 3.73267 19.582 4.106C19.2366 4.47 19.064 4.99733 19.064 5.688V10H17.468V2.286H19.064V3.168C19.3253 2.85067 19.6566 2.60333 20.058 2.426C20.4593 2.24867 20.8886 2.16 21.346 2.16C21.962 2.16 22.5126 2.29067 22.998 2.552C23.4833 2.81333 23.8566 3.19133 24.118 3.686C24.3513 3.21933 24.7153 2.85067 25.21 2.58C25.7046 2.3 26.2366 2.16 26.806 2.16ZM31.4828 6.108C31.4828 5.33333 31.6415 4.64733 31.9588 4.05C32.2855 3.45267 32.7242 2.99067 33.2748 2.664C33.8348 2.328 34.4508 2.16 35.1228 2.16C35.7295 2.16 36.2568 2.28133 36.7048 2.524C37.1622 2.75733 37.5262 3.05133 37.7968 3.406V2.286H39.4068V10H37.7968V8.852C37.5262 9.216 37.1575 9.51933 36.6908 9.762C36.2242 10.0047 35.6922 10.126 35.0948 10.126C34.4322 10.126 33.8255 9.958 33.2748 9.622C32.7242 9.27667 32.2855 8.80067 31.9588 8.194C31.6415 7.578 31.4828 6.88267 31.4828 6.108ZM37.7968 6.136C37.7968 5.604 37.6848 5.142 37.4608 4.75C37.2462 4.358 36.9615 4.05933 36.6068 3.854C36.2522 3.64867 35.8695 3.546 35.4588 3.546C35.0482 3.546 34.6655 3.64867 34.3108 3.854C33.9562 4.05 33.6668 4.344 33.4428 4.736C33.2282 5.11867 33.1208 5.576 33.1208 6.108C33.1208 6.64 33.2282 7.10667 33.4428 7.508C33.6668 7.90933 33.9562 8.21733 34.3108 8.432C34.6748 8.63733 35.0575 8.74 35.4588 8.74C35.8695 8.74 36.2522 8.63733 36.6068 8.432C36.9615 8.22667 37.2462 7.928 37.4608 7.536C37.6848 7.13467 37.7968 6.668 37.7968 6.136Z" fill="black"/>
</svg>
